<?xml version="1.0" encoding="UTF-8"?>
<svg version="1.1" xmlns="http://www.w3.org/2000/svg" width="64" height="64">
<path d="M0 0 C15.18 0 30.36 0 46 0 C45.67 1.65 45.34 3.3 45 5 C30.48 5 15.96 5 1 5 C0.67 3.35 0.34 1.7 0 0 Z " fill="#FFFFFF" transform="translate(18,51)"/>
<path d="M0 0 C14.52 0 29.04 0 44 0 C44.495 2.475 44.495 2.475 45 5 C29.82 5 14.64 5 -1 5 C-0.67 3.35 -0.34 1.7 0 0 Z " fill="#FFFFFF" transform="translate(19,8)"/>
<path d="M0 0 C15.18 0 30.36 0 46 0 C46 1.32 46 2.64 46 4 C30.82 4 15.64 4 0 4 C0 2.68 0 1.36 0 0 Z " fill="#FFFFFF" transform="translate(18,30)"/>
<path d="M0 0 C2.77577672 1.61174132 2.95299519 2.83005953 3.8125 5.9375 C4.01028636 9.16801051 3.92199114 10.43734514 2 13 C-0.56265486 14.92199114 -1.83198949 15.01028636 -5.0625 14.8125 C-9.49877351 13.58544563 -9.49877351 13.58544563 -11 11 C-11.53468062 7.44288862 -11.62733051 4.25466102 -10 1 C-6.74533898 -0.62733051 -3.55711138 -0.53468062 0 0 Z M-6 5 C-5.67 6.65 -5.34 8.3 -5 10 C-4.01 9.67 -3.02 9.34 -2 9 C-2 7.68 -2 6.36 -2 5 C-3.32 5 -4.64 5 -6 5 Z " fill="#FFFFFF" transform="translate(11,46)"/>
<path d="M0 0 C1.9375 1.75 1.9375 1.75 3 4 C2.87126043 7.15411935 2.55207235 9.1994951 0.75 11.8125 C-1.58992192 13.40030416 -3.16582395 13.86503924 -6 14 C-8.2831838 12.8584081 -10.19012683 11.80987317 -12 10 C-12.47124825 2.69565217 -12.47124825 2.69565217 -10.6875 0.0625 C-6.58144841 -2.52279174 -4.27974769 -1.87238961 0 0 Z M-7 4 C-7 5.32 -7 6.64 -7 8 C-5.68 8 -4.36 8 -3 8 C-2.67 7.01 -2.34 6.02 -2 5 C-3.65 4.67 -5.3 4.34 -7 4 Z " fill="#FFFFFF" transform="translate(12,26)"/>
<path d="M0 0 C2.32039251 1.60027069 2.89969741 2.72775011 3.875 5.375 C4.03673305 8.77139406 2.96039694 10.28560423 1 13 C0 14 0 14 -3.875 14.25 C-6.36195054 14.19651719 -7.75879953 14.12060023 -10 13 C-11.63893782 9.72212436 -11.74884833 6.51817423 -11 3 C-7.56705737 -1.13972494 -5.05326616 -1.64780418 0 0 Z M-5 4 C-5.33 5.65 -5.66 7.3 -6 9 C-4.68 9 -3.36 9 -2 9 C-1.67 8.01 -1.34 7.02 -1 6 C-2.32 5.34 -3.64 4.68 -5 4 Z " fill="#FFFFFF" transform="translate(11,4)"/>
</svg>
