<svg version="1.1" id="Layer_1" xmlns="http://www.w3.org/2000/svg" xmlns:xlink="http://www.w3.org/1999/xlink" x="0px" y="0px"
	 width="100%" viewBox="0 0 610 576" enable-background="new 0 0 610 576" xml:space="preserve">
<path fill="#F0F8F7" opacity="1.000000" stroke="none" 
	d="
M260.000000,1.000002 
	C289.020905,1.000000 318.041779,1.000000 347.689209,1.379899 
	C358.321930,3.355220 368.445465,4.426048 378.314728,6.633842 
	C430.294403,18.261953 476.269104,41.889820 515.900757,77.412857 
	C569.248169,125.229767 601.089661,184.595963 610.052246,256.372772 
	C609.987061,275.875031 609.970459,294.907379 610.047058,313.939362 
	C610.053833,315.627502 610.667969,317.313171 611.000000,319.000000 
	C611.000000,319.000000 611.000000,319.500000 610.631409,319.887024 
	C609.823181,322.555817 609.231628,324.820099 608.966431,327.121979 
	C603.602417,373.675323 585.942627,415.451508 558.559082,453.033569 
	C512.584167,516.130920 450.451965,554.755920 374.681091,572.017334 
	C366.183380,573.953247 357.563324,575.352112 349.000000,577.000000 
	C321.312439,577.000000 293.624878,577.000000 265.310120,576.635132 
	C253.389938,574.325745 241.949921,572.995422 230.828659,570.333435 
	C174.220520,556.783447 125.053291,529.583740 83.875076,488.398285 
	C42.037785,446.553619 15.460293,396.521240 4.708143,338.210846 
	C3.584977,332.119751 2.241341,326.069305 0.999998,320.000000 
	C1.000000,300.312439 1.000000,280.624878 1.371202,260.327698 
	C2.166166,257.601593 2.733736,255.502518 2.992258,253.366043 
	C7.317963,217.617538 17.871853,183.939682 35.964901,152.678040 
	C82.284439,72.645935 151.684555,24.758167 241.303024,4.948364 
	C247.522385,3.573602 253.767090,2.313452 260.000000,1.000002 
M194.029053,93.260353 
	C191.145569,89.083885 188.763565,88.596725 184.248993,92.177559 
	C175.273270,99.296867 166.480209,106.649292 157.692703,114.002251 
	C149.442871,120.905304 141.297562,127.933228 132.481247,135.194504 
	C127.353882,139.433746 122.168396,143.605209 117.118881,147.935211 
	C113.539711,151.004395 111.824707,154.842102 111.858459,159.770523 
	C111.996414,179.913025 111.850555,200.057343 111.838348,220.201019 
	C111.789108,301.453552 111.748337,382.706055 111.712311,463.958588 
	C111.709114,471.172699 112.668121,472.433411 118.883591,472.437500 
	C139.028519,472.450775 159.173965,472.387421 179.317856,472.204620 
	C181.365631,472.186035 183.835861,471.710938 185.370865,470.505981 
	C191.365021,465.800720 197.061859,460.716675 203.532135,455.697021 
	C210.648010,450.003632 217.763870,444.310211 225.727524,438.317474 
	C226.177185,439.270752 227.001038,440.217621 227.017426,441.178284 
	C227.150833,448.998657 227.129868,456.821594 227.162628,464.643768 
	C227.191605,471.564880 228.017365,472.462128 234.883133,472.455444 
	C248.530991,472.442200 262.291229,471.225586 275.798187,472.575684 
	C292.758698,474.270996 306.367554,469.701080 317.223053,456.689941 
	C317.436035,456.434631 317.664825,456.192474 318.487244,455.639923 
	C334.653320,442.293701 350.787842,428.908936 367.007385,415.627960 
	C371.144745,412.240204 373.188751,408.387360 373.114166,402.766907 
	C372.828949,381.283356 372.962585,359.793579 373.049164,338.306610 
	C373.058960,335.875610 373.761108,333.447357 374.779266,331.365723 
	C375.177216,332.634216 375.606995,333.893707 375.968536,335.172546 
	C389.520569,383.105743 403.119629,431.025879 416.512970,479.003418 
	C417.601929,482.904327 419.160553,483.606293 422.774689,482.669067 
	C442.871246,477.457733 463.018219,472.440887 483.112823,467.222137 
	C485.083832,466.710236 487.420197,465.725952 488.552887,464.195587 
	C493.092621,458.062225 497.224762,451.627167 502.077698,444.994690 
	C514.226746,427.712524 526.342163,410.406555 538.550964,393.166656 
	C541.242188,389.366516 541.082214,385.467224 539.912476,381.285034 
	C531.179138,350.058472 522.506836,318.814880 513.771362,287.588898 
	C496.524414,225.937775 479.261871,164.291000 461.970245,102.652405 
	C459.664825,94.434448 457.152588,86.274536 454.203247,76.282448 
	C447.825195,82.074875 441.839447,86.167274 437.641907,91.632980 
	C431.077332,100.180878 425.726135,109.660248 419.854492,118.740868 
	C415.903534,124.851135 411.941345,130.954147 407.389587,137.363571 
	C403.553467,142.792252 400.094421,148.551239 395.738464,153.524612 
	C393.162201,156.466003 389.459381,159.143646 385.758575,160.246307 
	C372.865967,164.087677 359.757019,167.204773 346.718079,170.549652 
	C345.532593,170.853760 344.259644,170.816971 342.330872,171.007172 
	C346.183044,164.568817 349.654419,158.766891 353.742310,152.731033 
	C361.736450,141.280594 369.579620,129.720535 377.782684,118.421791 
	C382.526093,111.888321 387.882080,105.801491 392.869629,99.440926 
	C393.468140,98.677650 393.484192,97.457626 393.770203,96.449303 
	C392.103271,96.073555 389.946625,94.862114 388.869659,95.493195 
	C386.509033,96.876465 384.563965,99.074760 382.687866,101.155464 
	C379.466766,104.727882 376.428162,108.464882 373.090454,111.202690 
	C373.059448,105.719368 372.911255,100.233147 373.046722,94.753944 
	C373.114716,92.002899 372.131866,90.968315 369.382385,90.766502 
	C363.373474,90.325462 358.443115,92.157936 354.068909,96.351555 
	C347.840912,102.322426 341.350067,108.021713 334.910706,113.768852 
	C326.755585,121.047256 318.539398,128.257263 309.823334,136.018036 
	C304.954620,140.045822 300.366577,144.501846 295.114288,147.944504 
	C291.842957,150.088745 287.630005,151.536118 283.729736,151.828094 
	C275.451416,152.447800 267.101288,152.123428 258.780487,152.156326 
	C252.384262,152.181610 245.987854,152.161362 238.073639,152.161362 
	C244.823364,146.070145 250.318390,141.111237 256.448151,135.848007 
	C267.338379,126.377670 278.094910,116.746910 289.177917,107.507805 
	C294.357666,103.189804 300.191437,99.660461 305.675537,95.699982 
	C306.843079,94.856804 307.779572,93.693657 308.822510,92.677933 
	C307.293945,91.847855 305.754425,90.338615 304.239685,90.363113 
	C302.429230,90.392418 300.402283,91.418869 298.885345,92.564507 
	C293.989258,96.262184 289.302979,100.236397 284.501404,104.060791 
	C276.260132,110.624855 267.992798,117.156242 258.939728,123.719040 
	C258.590546,122.219719 257.962402,120.724739 257.938995,119.220352 
	C257.817444,111.417061 257.618591,103.602310 257.923187,95.810181 
	C258.085144,91.665855 255.982040,89.977112 252.685852,90.642570 
	C248.333511,91.521248 244.197281,93.470436 239.428497,94.412010 
	C236.350876,94.609138 233.269028,95.024574 230.196396,94.964844 
	C218.153809,94.730736 206.114136,94.346703 194.029053,93.260353 
z"/>
<path fill="#034D52" opacity="1.000000" stroke="none" 
	d="
M0.999998,320.468658 
	C2.241341,326.069305 3.584977,332.119751 4.708143,338.210846 
	C15.460293,396.521240 42.037785,446.553619 83.875076,488.398285 
	C125.053291,529.583740 174.220520,556.783447 230.828659,570.333435 
	C241.949921,572.995422 253.389938,574.325745 264.841492,576.635132 
	C177.073929,577.000000 89.147850,577.000000 1.000000,577.000000 
	C1.000000,491.645905 1.000000,406.291595 0.999998,320.468658 
z"/>
<path fill="#034E53" opacity="1.000000" stroke="none" 
	d="
M349.468658,577.000000 
	C357.563324,575.352112 366.183380,573.953247 374.681091,572.017334 
	C450.451965,554.755920 512.584167,516.130920 558.559082,453.033569 
	C585.942627,415.451508 603.602417,373.675323 608.966431,327.121979 
	C609.231628,324.820099 609.823181,322.555817 610.631409,320.137024 
	C611.000000,405.594421 611.000000,491.188843 611.000000,577.000000 
	C523.979248,577.000000 436.958282,577.000000 349.468658,577.000000 
z"/>
<path fill="#034D52" opacity="1.000000" stroke="none" 
	d="
M259.531342,1.000002 
	C253.767090,2.313452 247.522385,3.573602 241.303024,4.948364 
	C151.684555,24.758167 82.284439,72.645935 35.964901,152.678040 
	C17.871853,183.939682 7.317963,217.617538 2.992258,253.366043 
	C2.733736,255.502518 2.166166,257.601593 1.371202,259.859039 
	C1.000000,173.739639 1.000000,87.479271 1.000000,1.000000 
	C87.020767,1.000000 173.041733,1.000000 259.531342,1.000002 
z"/>
<path fill="#034D52" opacity="1.000000" stroke="none" 
	d="
M610.125793,255.902771 
	C601.089661,184.595963 569.248169,125.229767 515.900757,77.412857 
	C476.269104,41.889820 430.294403,18.261953 378.314728,6.633842 
	C368.445465,4.426048 358.321930,3.355220 348.157837,1.379899 
	C435.592590,1.000000 523.185181,1.000000 611.000000,1.000000 
	C611.000000,85.687431 611.000000,170.375061 610.776855,255.548279 
	C610.553711,256.033875 610.125793,255.902771 610.125793,255.902771 
z"/>
<path fill="#78A1A4" opacity="1.000000" stroke="none" 
	d="
M610.052246,256.372772 
	C610.125793,255.902771 610.553711,256.033875 610.776855,256.016937 
	C611.000000,276.687561 611.000000,297.375122 611.000000,318.531342 
	C610.667969,317.313171 610.053833,315.627502 610.047058,313.939362 
	C609.970459,294.907379 609.987061,275.875031 610.052246,256.372772 
z"/>
<path fill="#027072" opacity="1.000000" stroke="none" 
	d="
M353.125824,152.964996 
	C349.654419,158.766891 346.183044,164.568817 342.330872,171.007172 
	C344.259644,170.816971 345.532593,170.853760 346.718079,170.549652 
	C359.757019,167.204773 372.865967,164.087677 385.758575,160.246307 
	C389.459381,159.143646 393.162201,156.466003 395.738464,153.524612 
	C400.094421,148.551239 403.553467,142.792252 407.860901,137.578842 
	C413.940399,137.005600 415.352112,140.488724 416.546448,145.078873 
	C420.060394,158.584106 423.961182,171.989029 427.739014,185.425217 
	C447.572571,255.964951 467.376984,326.512939 487.282928,397.032257 
	C491.839630,413.174896 496.756470,429.215851 501.507568,445.303619 
	C497.224762,451.627167 493.092621,458.062225 488.552887,464.195587 
	C487.420197,465.725952 485.083832,466.710236 483.112823,467.222137 
	C463.018219,472.440887 442.871246,477.457733 422.774689,482.669067 
	C419.160553,483.606293 417.601929,482.904327 416.512970,479.003418 
	C403.119629,431.025879 389.520569,383.105743 375.968536,335.172546 
	C375.606995,333.893707 375.177216,332.634216 374.395935,330.788055 
	C370.601685,317.071869 367.375916,303.881927 363.744354,290.804657 
	C353.666992,254.516296 343.476410,218.259018 333.179321,182.032455 
	C331.689850,176.792297 332.195435,172.387787 335.635406,168.087433 
	C339.676758,163.035309 343.393066,157.723190 347.635986,152.696091 
	C349.723022,152.900574 351.424408,152.932785 353.125824,152.964996 
z"/>
<path fill="#027072" opacity="1.000000" stroke="none" 
	d="
M317.886230,455.944183 
	C317.664825,456.192474 317.436035,456.434631 317.223053,456.689941 
	C306.367554,469.701080 292.758698,474.270996 275.798187,472.575684 
	C262.291229,471.225586 248.530991,472.442200 234.883133,472.455444 
	C228.017365,472.462128 227.191605,471.564880 227.162628,464.643768 
	C227.129868,456.821594 227.150833,448.998657 227.017426,441.178284 
	C227.001038,440.217621 226.177185,439.270752 225.411728,438.046356 
	C225.749283,434.964447 226.966232,432.154877 226.972397,429.342651 
	C227.086517,377.364838 227.048218,325.386749 227.058823,273.408691 
	C227.066544,235.591614 227.004730,197.773865 227.276001,159.958572 
	C227.301056,156.465881 228.575882,152.068848 230.904068,149.691895 
	C236.105988,144.381042 242.339920,140.081039 248.554550,135.532654 
	C251.241562,135.848129 253.527481,136.000214 255.813400,136.152313 
	C250.318390,141.111237 244.823364,146.070145 238.073639,152.161362 
	C245.987854,152.161362 252.384262,152.181610 258.780487,152.156326 
	C267.101288,152.123428 275.451416,152.447800 283.729736,151.828094 
	C287.630005,151.536118 291.842957,150.088745 295.114288,147.944504 
	C300.366577,144.501846 304.954620,140.045822 310.419678,135.924896 
	C317.449860,136.331055 317.291138,140.936066 317.289337,145.643936 
	C317.259705,223.433960 317.220398,301.224060 317.299622,379.014008 
	C317.325745,404.657562 317.681305,430.300812 317.886230,455.944183 
z"/>
<path fill="#017072" opacity="1.000000" stroke="none" 
	d="
M202.869232,455.773438 
	C197.061859,460.716675 191.365021,465.800720 185.370865,470.505981 
	C183.835861,471.710938 181.365631,472.186035 179.317856,472.204620 
	C159.173965,472.387421 139.028519,472.450775 118.883591,472.437500 
	C112.668121,472.433411 111.709114,471.172699 111.712311,463.958588 
	C111.748337,382.706055 111.789108,301.453552 111.838348,220.201019 
	C111.850555,200.057343 111.996414,179.913025 111.858459,159.770523 
	C111.824707,154.842102 113.539711,151.004395 117.118881,147.935211 
	C122.168396,143.605209 127.353882,139.433746 133.023132,135.349060 
	C135.755997,135.961807 137.946991,136.419983 139.856659,137.076324 
	C134.344589,141.915253 129.113800,146.555984 123.883034,151.196732 
	C124.036415,151.696381 124.189796,152.196014 124.343178,152.695663 
	C136.900406,152.695663 149.463043,152.924713 162.013229,152.627594 
	C173.289337,152.360641 183.002533,148.306442 190.363525,139.337372 
	C191.587311,137.846222 193.446945,136.876907 195.329422,135.927094 
	C197.687164,136.654236 199.728271,137.120743 202.114578,137.666153 
	C202.114578,139.939880 202.114563,142.081543 202.114563,144.223206 
	C202.114578,244.933228 202.107773,345.643250 202.146301,446.353271 
	C202.147507,449.493439 202.617691,452.633392 202.869232,455.773438 
z"/>
<path fill="#5FDDD2" opacity="1.000000" stroke="none" 
	d="
M501.792664,445.149170 
	C496.756470,429.215851 491.839630,413.174896 487.282928,397.032257 
	C467.376984,326.512939 447.572571,255.964951 427.739014,185.425217 
	C423.961182,171.989029 420.060394,158.584106 416.546448,145.078873 
	C415.352112,140.488724 413.940399,137.005600 408.158173,137.427261 
	C411.941345,130.954147 415.903534,124.851135 419.854492,118.740868 
	C425.726135,109.660248 431.077332,100.180878 437.641907,91.632980 
	C441.839447,86.167274 447.825195,82.074875 454.203247,76.282448 
	C457.152588,86.274536 459.664825,94.434448 461.970245,102.652405 
	C479.261871,164.291000 496.524414,225.937775 513.771362,287.588898 
	C522.506836,318.814880 531.179138,350.058472 539.912476,381.285034 
	C541.082214,385.467224 541.242188,389.366516 538.550964,393.166656 
	C526.342163,410.406555 514.226746,427.712524 501.792664,445.149170 
M437.620331,200.206528 
	C438.508118,203.984833 439.395905,207.763123 440.502625,212.473312 
	C441.908478,210.692139 442.671997,209.875778 443.265228,208.950287 
	C451.148895,196.650620 458.515625,183.980026 467.047852,172.149536 
	C472.734863,164.264160 469.239410,157.768250 466.848816,150.137268 
	C458.315674,162.998703 449.990509,175.188477 442.107605,187.657822 
	C439.895325,191.157288 438.983459,195.478836 437.620331,200.206528 
M444.955048,171.472885 
	C447.405914,167.733749 449.981079,164.068970 452.274506,160.235641 
	C454.828308,155.967072 454.707642,151.646835 451.849274,146.829407 
	C445.487823,156.632538 439.368286,165.860336 433.480286,175.233597 
	C431.037811,179.121887 431.839600,182.969620 434.961060,186.985886 
	C438.314301,181.745148 441.416779,176.896332 444.955048,171.472885 
z"/>
<path fill="#FD9292" opacity="1.000000" stroke="none" 
	d="
M318.186737,455.792053 
	C317.681305,430.300812 317.325745,404.657562 317.299622,379.014008 
	C317.220398,301.224060 317.259705,223.433960 317.289337,145.643936 
	C317.291138,140.936066 317.449860,136.331055 310.682800,135.664246 
	C318.539398,128.257263 326.755585,121.047256 334.910706,113.768852 
	C341.350067,108.021713 347.840912,102.322426 354.068909,96.351555 
	C358.443115,92.157936 363.373474,90.325462 369.382385,90.766502 
	C372.131866,90.968315 373.114716,92.002899 373.046722,94.753944 
	C372.911255,100.233147 373.059448,105.719368 373.149719,112.026138 
	C372.370331,114.438721 371.663788,116.115952 370.672058,117.603020 
	C362.895630,129.263824 355.064545,140.888199 347.250305,152.523804 
	C343.393066,157.723190 339.676758,163.035309 335.635406,168.087433 
	C332.195435,172.387787 331.689850,176.792297 333.179321,182.032455 
	C343.476410,218.259018 353.666992,254.516296 363.744354,290.804657 
	C367.375916,303.881927 370.601685,317.071869 374.077393,330.614136 
	C373.761108,333.447357 373.058960,335.875610 373.049164,338.306610 
	C372.962585,359.793579 372.828949,381.283356 373.114166,402.766907 
	C373.188751,408.387360 371.144745,412.240204 367.007385,415.627960 
	C350.787842,428.908936 334.653320,442.293701 318.186737,455.792053 
z"/>
<path fill="#5FDBD1" opacity="1.000000" stroke="none" 
	d="
M203.200684,455.735229 
	C202.617691,452.633392 202.147507,449.493439 202.146301,446.353271 
	C202.107773,345.643250 202.114578,244.933228 202.114563,144.223206 
	C202.114563,142.081543 202.114578,139.939880 202.114578,137.666153 
	C199.728271,137.120743 197.687164,136.654236 195.442383,135.633926 
	C199.129135,131.729355 203.087357,128.453659 206.897141,125.013596 
	C217.952713,115.030876 228.948761,104.982231 239.968155,94.959450 
	C244.197281,93.470436 248.333511,91.521248 252.685852,90.642570 
	C255.982040,89.977112 258.085144,91.665855 257.923187,95.810181 
	C257.618591,103.602310 257.817444,111.417061 257.938995,119.220352 
	C257.962402,120.724739 258.590546,122.219719 259.279175,124.053543 
	C255.796890,128.048462 251.975174,131.708847 248.153442,135.369263 
	C242.339920,140.081039 236.105988,144.381042 230.904068,149.691895 
	C228.575882,152.068848 227.301056,156.465881 227.276001,159.958572 
	C227.004730,197.773865 227.066544,235.591614 227.058823,273.408691 
	C227.048218,325.386749 227.086517,377.364838 226.972397,429.342651 
	C226.966232,432.154877 225.749283,434.964447 224.987823,438.196045 
	C217.763870,444.310211 210.648010,450.003632 203.200684,455.735229 
z"/>
<path fill="#FBFDFD" opacity="1.000000" stroke="none" 
	d="
M239.698334,94.685730 
	C228.948761,104.982231 217.952713,115.030876 206.897141,125.013596 
	C203.087357,128.453659 199.129135,131.729355 195.125732,135.373291 
	C193.446945,136.876907 191.587311,137.846222 190.363525,139.337372 
	C183.002533,148.306442 173.289337,152.360641 162.013229,152.627594 
	C149.463043,152.924713 136.900406,152.695663 124.343178,152.695663 
	C124.189796,152.196014 124.036415,151.696381 123.883034,151.196732 
	C129.113800,146.555984 134.344589,141.915253 140.152618,136.972992 
	C151.911926,127.037270 163.015503,117.309837 174.307266,107.806000 
	C180.461578,102.626144 185.742752,96.108917 194.073380,94.018364 
	C206.114136,94.346703 218.153809,94.730736 230.196396,94.964844 
	C233.269028,95.024574 236.350876,94.609138 239.698334,94.685730 
z"/>
<path fill="#69DBD1" opacity="1.000000" stroke="none" 
	d="
M347.635956,152.696075 
	C355.064545,140.888199 362.895630,129.263824 370.672058,117.603020 
	C371.663788,116.115952 372.370331,114.438721 373.260956,112.491188 
	C376.428162,108.464882 379.466766,104.727882 382.687866,101.155464 
	C384.563965,99.074760 386.509033,96.876465 388.869659,95.493195 
	C389.946625,94.862114 392.103271,96.073555 393.770203,96.449303 
	C393.484192,97.457626 393.468140,98.677650 392.869629,99.440926 
	C387.882080,105.801491 382.526093,111.888321 377.782684,118.421791 
	C369.579620,129.720535 361.736450,141.280594 353.434082,152.848022 
	C351.424408,152.932785 349.723022,152.900574 347.635956,152.696075 
z"/>
<path fill="#FA9595" opacity="1.000000" stroke="none" 
	d="
M248.554535,135.532654 
	C251.975174,131.708847 255.796890,128.048462 259.677521,124.044701 
	C267.992798,117.156242 276.260132,110.624855 284.501404,104.060791 
	C289.302979,100.236397 293.989258,96.262184 298.885345,92.564507 
	C300.402283,91.418869 302.429230,90.392418 304.239685,90.363113 
	C305.754425,90.338615 307.293945,91.847855 308.822510,92.677933 
	C307.779572,93.693657 306.843079,94.856804 305.675537,95.699982 
	C300.191437,99.660461 294.357666,103.189804 289.177917,107.507805 
	C278.094910,116.746910 267.338379,126.377670 256.130768,136.000153 
	C253.527481,136.000214 251.241562,135.848129 248.554535,135.532654 
z"/>
<path fill="#6ADBCF" opacity="1.000000" stroke="none" 
	d="
M194.051208,93.639359 
	C185.742752,96.108917 180.461578,102.626144 174.307266,107.806000 
	C163.015503,117.309837 151.911926,127.037270 140.433929,136.774811 
	C137.946991,136.419983 135.755997,135.961807 133.335632,135.204926 
	C141.297562,127.933228 149.442871,120.905304 157.692703,114.002251 
	C166.480209,106.649292 175.273270,99.296867 184.248993,92.177559 
	C188.763565,88.596725 191.145569,89.083885 194.051208,93.639359 
z"/>
<path fill="#F5FDFD" opacity="1.000000" stroke="none" 
	d="
M437.547699,199.814911 
	C438.983459,195.478836 439.895325,191.157288 442.107605,187.657822 
	C449.990509,175.188477 458.315674,162.998703 466.848816,150.137268 
	C469.239410,157.768250 472.734863,164.264160 467.047852,172.149536 
	C458.515625,183.980026 451.148895,196.650620 443.265228,208.950287 
	C442.671997,209.875778 441.908478,210.692139 440.502625,212.473312 
	C439.395905,207.763123 438.508118,203.984833 437.547699,199.814911 
z"/>
<path fill="#EFFBFB" opacity="1.000000" stroke="none" 
	d="
M444.737122,171.760193 
	C441.416779,176.896332 438.314301,181.745148 434.961060,186.985886 
	C431.839600,182.969620 431.037811,179.121887 433.480286,175.233597 
	C439.368286,165.860336 445.487823,156.632538 451.849274,146.829407 
	C454.707642,151.646835 454.828308,155.967072 452.274506,160.235641 
	C449.981079,164.068970 447.405914,167.733749 444.737122,171.760193 
z"/>
</svg>