<?xml version="1.0" encoding="UTF-8"?>
<svg version="1.1" xmlns="http://www.w3.org/2000/svg" width="64" height="64">
<path d="M0 0 C0.71534912 -0.00088623 1.43069824 -0.00177246 2.16772461 -0.00268555 C6.97781874 0.07314558 10.88711195 0.72186724 15.22265625 2.94921875 C18.08520999 3.44682155 19.83235086 2.2570388 22.38354492 1.05297852 C25.69316184 -0.2175022 28.93264688 -0.12212888 32.4375 -0.0625 C33.12714844 -0.07410156 33.81679688 -0.08570313 34.52734375 -0.09765625 C38.91543812 -0.07248554 41.89941214 0.48375403 45.3125 3.3125 C45.3125 4.3025 45.3125 5.2925 45.3125 6.3125 C46.3025 6.3125 47.2925 6.3125 48.3125 6.3125 C48.3125 20.8325 48.3125 35.3525 48.3125 50.3125 C40.3125 49.3125 40.3125 49.3125 37.94921875 48.9609375 C31.95712235 48.12036285 26.30154956 48.58485846 20.3125 49.3125 C20.3125 50.3025 20.3125 51.2925 20.3125 52.3125 C17.6725 52.3125 15.0325 52.3125 12.3125 52.3125 C12.3125 51.3225 12.3125 50.3325 12.3125 49.3125 C8.28393103 48.96621596 8.28393103 48.96621596 4.3125 49.3125 C2.60663425 50.93902316 0.9347454 52.60256566 -0.6875 54.3125 C-3.3125 54.3125 -3.3125 54.3125 -5.6875 53.3125 C-6.14125 52.796875 -6.595 52.28125 -7.0625 51.75 C-9.19973443 49.53949714 -9.19973443 49.53949714 -15.6875 50.3125 C-15.6875 35.7925 -15.6875 21.2725 -15.6875 6.3125 C-14.6975 6.3125 -13.7075 6.3125 -12.6875 6.3125 C-12.605 5.69375 -12.5225 5.075 -12.4375 4.4375 C-11.6875 2.3125 -11.6875 2.3125 -10.12109375 1.19921875 C-6.76007431 -0.02542236 -3.53113008 -0.02500278 0 0 Z M-10.6875 5.3125 C-10.77605161 7.9787603 -10.80274673 10.61897114 -10.78515625 13.28515625 C-10.7837413 14.08279892 -10.78232635 14.88044159 -10.78086853 15.70225525 C-10.77525316 18.25987435 -10.76269812 20.81740718 -10.75 23.375 C-10.74498698 25.10481645 -10.74042373 26.83463426 -10.73632812 28.56445312 C-10.72527875 32.81383553 -10.70800386 37.06315312 -10.6875 41.3125 C-9.2385234 40.8656616 -7.79244644 40.4094133 -6.34765625 39.94921875 C-5.54207275 39.69615967 -4.73648926 39.44310059 -3.90649414 39.18237305 C-1.14891877 38.10136952 0.48185377 36.62070612 2.3125 34.3125 C1.9825 33.6525 1.6525 32.9925 1.3125 32.3125 C-1.6575 32.9725 -4.6275 33.6325 -7.6875 34.3125 C-7.6875 33.3225 -7.6875 32.3325 -7.6875 31.3125 C-2.7375 30.9825 2.2125 30.6525 7.3125 30.3125 C6.9825 29.3225 6.6525 28.3325 6.3125 27.3125 C1.35903013 25.71460649 -2.82032415 27.02943186 -7.6875 28.3125 C-7.6875 27.3225 -7.6875 26.3325 -7.6875 25.3125 C-3.0675 24.9825 1.5525 24.6525 6.3125 24.3125 C6.3125 23.3225 6.3125 22.3325 6.3125 21.3125 C1.35903013 19.71460649 -2.82032415 21.02943186 -7.6875 22.3125 C-7.6875 21.3225 -7.6875 20.3325 -7.6875 19.3125 C-3.0675 18.9825 1.5525 18.6525 6.3125 18.3125 C6.3125 17.3225 6.3125 16.3325 6.3125 15.3125 C1.35903013 13.71460649 -2.82032415 15.02943186 -7.6875 16.3125 C-7.6875 15.3225 -7.6875 14.3325 -7.6875 13.3125 C-2.0775 13.3125 3.5325 13.3125 9.3125 13.3125 C8.9825 12.3225 8.6525 11.3325 8.3125 10.3125 C2.49037709 7.76532123 -1.70526862 8.54903043 -7.6875 10.3125 C-7.6875 9.3225 -7.6875 8.3325 -7.6875 7.3125 C-5.31179457 7.2308918 -2.93894159 7.17172778 -0.5625 7.125 C0.10265625 7.09986328 0.7678125 7.07472656 1.453125 7.04882812 C6.18152292 6.97929286 9.26371479 7.90971625 13.3125 10.3125 C13.3125 8.9925 13.3125 7.6725 13.3125 6.3125 C7.31592456 2.86446912 -4.75914856 -0.61585144 -10.6875 5.3125 Z M19.6875 6.4375 C19.23375 7.05625 18.78 7.675 18.3125 8.3125 C19.79943359 8.06693359 19.79943359 8.06693359 21.31640625 7.81640625 C25.30604579 7.24645774 29.21871941 7.21432495 33.25 7.25 C34.27577148 7.25676758 34.27577148 7.25676758 35.32226562 7.26367188 C36.98571604 7.2753044 38.6491205 7.29323306 40.3125 7.3125 C40.3125 8.3025 40.3125 9.2925 40.3125 10.3125 C37.0125 9.6525 33.7125 8.9925 30.3125 8.3125 C30.3125 9.3025 30.3125 10.2925 30.3125 11.3125 C33.6125 11.9725 36.9125 12.6325 40.3125 13.3125 C40.3125 14.3025 40.3125 15.2925 40.3125 16.3125 C37.8375 15.8175 37.8375 15.8175 35.3125 15.3125 C35.6425 16.3025 35.9725 17.2925 36.3125 18.3125 C38.32758358 19.04573796 38.32758358 19.04573796 40.3125 19.3125 C40.3125 20.3025 40.3125 21.2925 40.3125 22.3125 C38.9925 21.9825 37.6725 21.6525 36.3125 21.3125 C36.3125 22.3025 36.3125 23.2925 36.3125 24.3125 C37.6325 24.6425 38.9525 24.9725 40.3125 25.3125 C40.3125 26.3025 40.3125 27.2925 40.3125 28.3125 C38.9925 27.9825 37.6725 27.6525 36.3125 27.3125 C35.9825 28.3025 35.6525 29.2925 35.3125 30.3125 C36.9625 30.6425 38.6125 30.9725 40.3125 31.3125 C40.3125 32.3025 40.3125 33.2925 40.3125 34.3125 C39.28125 34.065 38.25 33.8175 37.1875 33.5625 C33.28878443 32.91724046 33.28878443 32.91724046 30.5 35.1875 C26.20843134 38.04854577 22.36896208 38.11263984 17.3125 38.3125 C17.3125 39.3025 17.3125 40.2925 17.3125 41.3125 C18.18080444 41.06910889 18.18080444 41.06910889 19.06665039 40.82080078 C22.59630645 40.02193744 26.15009894 40.16905473 29.75 40.1875 C30.50087891 40.18363281 31.25175781 40.17976563 32.02539062 40.17578125 C32.75822266 40.17707031 33.49105469 40.17835937 34.24609375 40.1796875 C35.2369397 40.18137939 35.2369397 40.18137939 36.24780273 40.18310547 C38.3125 40.3125 38.3125 40.3125 43.3125 41.3125 C43.3125 29.4325 43.3125 17.5525 43.3125 5.3125 C35.80675352 1.55962676 26.50779839 0.91630607 19.6875 6.4375 Z M-13.6875 8.3125 C-13.6875 21.1825 -13.6875 34.0525 -13.6875 47.3125 C-12.0375 46.6525 -10.3875 45.9925 -8.6875 45.3125 C-10.0075 44.9825 -11.3275 44.6525 -12.6875 44.3125 C-12.6875 32.4325 -12.6875 20.5525 -12.6875 8.3125 C-13.0175 8.3125 -13.3475 8.3125 -13.6875 8.3125 Z M16.3125 11.3125 C16.3125 11.6425 16.3125 11.9725 16.3125 12.3125 C19.6125 12.3125 22.9125 12.3125 26.3125 12.3125 C26.3125 11.9825 26.3125 11.6525 26.3125 11.3125 C23.0125 11.3125 19.7125 11.3125 16.3125 11.3125 Z M14.8125 16.8125 C12.69096616 20.34838973 12.521487 23.29151723 13.3125 27.3125 C14.64583333 29.97916667 14.64583333 29.97916667 17.3125 31.3125 C21.33348277 32.103513 24.27661027 31.93403384 27.8125 29.8125 C29.93403384 26.27661027 30.103513 23.33348277 29.3125 19.3125 C27.97916667 16.64583333 27.97916667 16.64583333 25.3125 15.3125 C21.29151723 14.521487 18.34838973 14.69096616 14.8125 16.8125 Z M9.3125 18.3125 C9.3125 21.6125 9.3125 24.9125 9.3125 28.3125 C9.6425 28.3125 9.9725 28.3125 10.3125 28.3125 C10.3125 25.0125 10.3125 21.7125 10.3125 18.3125 C9.9825 18.3125 9.6525 18.3125 9.3125 18.3125 Z M32.3125 18.3125 C32.3125 21.6125 32.3125 24.9125 32.3125 28.3125 C32.6425 28.3125 32.9725 28.3125 33.3125 28.3125 C33.3125 25.0125 33.3125 21.7125 33.3125 18.3125 C32.9825 18.3125 32.6525 18.3125 32.3125 18.3125 Z M16.3125 34.3125 C16.3125 34.6425 16.3125 34.9725 16.3125 35.3125 C19.6125 35.3125 22.9125 35.3125 26.3125 35.3125 C26.3125 34.9825 26.3125 34.6525 26.3125 34.3125 C23.0125 34.3125 19.7125 34.3125 16.3125 34.3125 Z M1.9296875 38.5 C0.57230469 39.8921875 0.57230469 39.8921875 -0.8125 41.3125 C-1.72257813 42.240625 -2.63265625 43.16875 -3.5703125 44.125 C-4.26898438 44.846875 -4.96765625 45.56875 -5.6875 46.3125 C-5.0275 47.6325 -4.3675 48.9525 -3.6875 50.3125 C-0.23548361 48.83528578 1.96211936 46.87455999 4.5625 44.1875 C5.26890625 43.46304688 5.9753125 42.73859375 6.703125 41.9921875 C7.23421875 41.43789063 7.7653125 40.88359375 8.3125 40.3125 C7.6525 38.9925 6.9925 37.6725 6.3125 36.3125 C4.01894278 36.08707624 4.01894278 36.08707624 1.9296875 38.5 Z M12.3125 37.3125 C12.6425 38.6325 12.9725 39.9525 13.3125 41.3125 C13.9725 41.3125 14.6325 41.3125 15.3125 41.3125 C15.3125 39.9925 15.3125 38.6725 15.3125 37.3125 C14.3225 37.3125 13.3325 37.3125 12.3125 37.3125 Z M45.3125 8.3125 C45.3125 20.1925 45.3125 32.0725 45.3125 44.3125 C40.0325 43.3225 34.7525 42.3325 29.3125 41.3125 C24.128388 41.61061661 24.128388 41.61061661 20.3125 43.3125 C19.0636582 45.32421625 19.0636582 45.32421625 18.3125 47.3125 C19.7975 46.8175 19.7975 46.8175 21.3125 46.3125 C22.80770682 46.22024626 24.3066389 46.18182539 25.8046875 46.1796875 C26.67480469 46.17839844 27.54492188 46.17710938 28.44140625 46.17578125 C29.34761719 46.17964844 30.25382812 46.18351562 31.1875 46.1875 C32.08597656 46.18363281 32.98445313 46.17976563 33.91015625 46.17578125 C35.21919922 46.17771484 35.21919922 46.17771484 36.5546875 46.1796875 C37.3472998 46.18081543 38.13991211 46.18194336 38.95654297 46.18310547 C41.3125 46.3125 41.3125 46.3125 46.3125 47.3125 C46.3125 34.4425 46.3125 21.5725 46.3125 8.3125 C45.9825 8.3125 45.6525 8.3125 45.3125 8.3125 Z M9.3125 43.3125 C8.9825 43.9725 8.6525 44.6325 8.3125 45.3125 C10.2925 45.9725 12.2725 46.6325 14.3125 47.3125 C13.6525 45.9925 12.9925 44.6725 12.3125 43.3125 C11.3225 43.3125 10.3325 43.3125 9.3125 43.3125 Z M14.3125 47.3125 C14.3125 47.9725 14.3125 48.6325 14.3125 49.3125 C15.6325 49.3125 16.9525 49.3125 18.3125 49.3125 C17.9825 48.6525 17.6525 47.9925 17.3125 47.3125 C16.3225 47.3125 15.3325 47.3125 14.3125 47.3125 Z " fill="#FFFFFF" transform="translate(15.6875,4.6875)"/>
<path d="M0 0 C4.44936709 -0.36075949 4.44936709 -0.36075949 6.8125 1.1875 C8.36678206 3.55982525 8.22537188 5.22041345 8 8 C7.01 7.67 6.02 7.34 5 7 C4.67 6.01 4.34 5.02 4 4 C1.99983534 2.79117904 1.99983534 2.79117904 0 2 C0 1.34 0 0.68 0 0 Z " fill="#FFFFFF" transform="translate(36,21)"/>
</svg>
