<?xml version="1.0" encoding="UTF-8"?>
<svg version="1.1" xmlns="http://www.w3.org/2000/svg" width="64" height="64">
<path d="M0 0 C0.70125 0.00515625 1.4025 0.0103125 2.125 0.015625 C2.82625 0.01046875 3.5275 0.0053125 4.25 0 C6.125 0.265625 6.125 0.265625 8.125 2.265625 C8.25 4.890625 8.25 4.890625 8.125 7.265625 C9.2078125 7.389375 9.2078125 7.389375 10.3125 7.515625 C15.53836302 8.90918847 18.18824087 11.91342854 20.875 16.453125 C23.51971132 21.9302895 23.69465169 27.21578549 23.58496094 33.19995117 C23.60954629 39.10931381 25.21685128 41.18257456 29.125 45.265625 C30.125 47.828125 30.125 47.828125 30.125 50.265625 C28.91088997 53.01334769 27.92665781 54.73663991 25.40234375 56.40234375 C22.457323 57.51872383 20.01524633 57.45889122 16.875 57.390625 C15.79734375 57.37257812 14.7196875 57.35453125 13.609375 57.3359375 C12.78953125 57.31273437 11.9696875 57.28953125 11.125 57.265625 C10.856875 58.049375 10.58875 58.833125 10.3125 59.640625 C9.125 62.265625 9.125 62.265625 6.125 64.265625 C-0.87648588 65.05611534 -0.87648588 65.05611534 -4.875 61.890625 C-6.875 59.265625 -6.875 59.265625 -6.875 57.265625 C-8.08736328 57.31783203 -8.08736328 57.31783203 -9.32421875 57.37109375 C-10.39285156 57.39816406 -11.46148437 57.42523438 -12.5625 57.453125 C-14.14611328 57.50533203 -14.14611328 57.50533203 -15.76171875 57.55859375 C-19.2845359 57.22708649 -21.06747869 56.38122173 -23.875 54.265625 C-25.4375 51.515625 -25.4375 51.515625 -25.875 48.265625 C-24.54876986 44.74855059 -22.53496623 41.92559123 -19.875 39.265625 C-19.6955864 36.58324465 -19.60549943 33.94993625 -19.5625 31.265625 C-19.24654726 23.2198125 -18.16239273 16.38377855 -12.09375 10.5546875 C-9.28048107 8.39705328 -7.46538825 7.265625 -3.875 7.265625 C-3.91625 6.481875 -3.9575 5.698125 -4 4.890625 C-3.85062795 1.75381204 -3.24877539 0.46024318 0 0 Z M-11.3125 18.203125 C-14.25661696 23.97359425 -14.11703285 29.93671752 -14.12890625 36.29492188 C-14.27316375 40.29996553 -14.86022644 42.64302116 -17.484375 45.58203125 C-18.27328125 46.46761719 -19.0621875 47.35320313 -19.875 48.265625 C-19.545 49.255625 -19.215 50.245625 -18.875 51.265625 C-5.015 51.265625 8.845 51.265625 23.125 51.265625 C23.56215056 47.27054376 23.56215056 47.27054376 21.1640625 45.0078125 C18.56606421 41.51395273 18.53134629 38.58319161 18.5 34.390625 C18.37633165 27.8485694 18.19961251 21.80126252 13.875 16.515625 C10.16540728 13.48050368 7.0280805 11.55522421 2.25 10.828125 C-3.505273 11.63386322 -7.59353698 13.72129777 -11.3125 18.203125 Z M-0.875 57.265625 C-0.545 57.925625 -0.215 58.585625 0.125 59.265625 C1.775 58.935625 3.425 58.605625 5.125 58.265625 C5.125 57.935625 5.125 57.605625 5.125 57.265625 C3.145 57.265625 1.165 57.265625 -0.875 57.265625 Z " fill="#FFFFFF" transform="translate(29.875,-0.265625)"/>
</svg>
